<svg xmlns="http://www.w3.org/2000/svg" viewBox="0 0 34.69 9.14"><defs><style>.a{fill:#fff;}</style></defs><path class="a" d="M4.24,8.71l-.5.19a6.13,6.13,0,0,1-.61.18,3.79,3.79,0,0,1-.67.06A2.29,2.29,0,0,1,1.64,9a1.37,1.37,0,0,1-.59-.5,1.5,1.5,0,0,1-.22-.88V4H0V2.81H.83v-2H2.44v2H3.76V4H2.44V7a.53.53,0,0,0,.18.46A.62.62,0,0,0,3,7.67a1.37,1.37,0,0,0,.49-.09l.38-.14Z" transform="translate(0 0)"/><path class="a" d="M12.85,2.81h1.53L11.75,9H10.4L9.35,6.35,8.35,9H7L4.34,2.81H5.86L7.73,7.5l.73-2L7.37,2.81H8.7l.65,1.9L10,2.81h1.33L10.25,5.47l.74,2Z" transform="translate(0 0)"/><path class="a" d="M15.12,9V2.73h1.61V9Z" transform="translate(0 0)"/><path class="a" d="M18.18,9V2.73h1.61V9Z" transform="translate(0 0)"/><path class="a" d="M27.08,9h-1.6V5.54a1.72,1.72,0,0,0-.27-1.08.86.86,0,0,0-.73-.35,1.34,1.34,0,0,0-.65.17,1.88,1.88,0,0,0-1,1.11V9H21.24V2.81h1.45V4a2.52,2.52,0,0,1,.61-.69,3.1,3.1,0,0,1,.86-.46,3.37,3.37,0,0,1,1-.15,1.92,1.92,0,0,1,1,.21,1.34,1.34,0,0,1,.58.55,2.76,2.76,0,0,1,.28.79,5.26,5.26,0,0,1,.07.89Z" transform="translate(0 0)"/><path class="a" d="M31.4,9.14A3.51,3.51,0,0,1,30,8.89a3.47,3.47,0,0,1-1-.7A3.16,3.16,0,0,1,28.1,6a3.42,3.42,0,0,1,.4-1.63,3.06,3.06,0,0,1,1.16-1.18,3.52,3.52,0,0,1,1.77-.44,3.39,3.39,0,0,1,1.76.44A3,3,0,0,1,34.3,4.32a3.29,3.29,0,0,1,.39,1.57v.54H29.8a1.71,1.71,0,0,0,.28.82,1.34,1.34,0,0,0,.6.53,1.64,1.64,0,0,0,.78.19,1.82,1.82,0,0,0,.91-.24A1.19,1.19,0,0,0,33,7.11l1.38.39a2.83,2.83,0,0,1-.65.85,3.23,3.23,0,0,1-1,.58A3.78,3.78,0,0,1,31.4,9.14ZM29.76,5.41h3.29a1.85,1.85,0,0,0-.27-.82,1.41,1.41,0,0,0-.58-.53,1.76,1.76,0,0,0-.81-.2,1.65,1.65,0,0,0-.78.2,1.41,1.41,0,0,0-.58.53A1.85,1.85,0,0,0,29.76,5.41Z" transform="translate(0 0)"/><path class="a" d="M19.79,1.19A1.17,1.17,0,0,0,18.64,0h0a1.29,1.29,0,0,0-1,.55l.25.29s.3-.5.74-.5a.81.81,0,0,1,.81.81v0a.86.86,0,0,1-.73.89c-1,0-1.12-2.07-2.44-2.07a1.19,1.19,0,0,0-1.15,1.22,1.18,1.18,0,0,0,1.15,1.21h0a1.39,1.39,0,0,0,1-.64l-.22-.27s-.38.55-.82.55a.8.8,0,0,1-.8-.82v0A.83.83,0,0,1,16.2.34h0c1,0,1.18,2.09,2.43,2.09A1.22,1.22,0,0,0,19.79,1.19Z" transform="translate(0 0)"/></svg>