<svg xmlns="http://www.w3.org/2000/svg" viewBox="0 0 34.69 9.14"><path d="M4.24,8.9l-.5.19a4.87,4.87,0,0,1-.61.18,3.79,3.79,0,0,1-.67.06,2.18,2.18,0,0,1-.82-.15,1.36,1.36,0,0,1-.59-.5A1.55,1.55,0,0,1,.83,7.8V4.22H0V3H.83v-2H2.44V3H3.76V4.22H2.44v3a.53.53,0,0,0,.18.46A.6.6,0,0,0,3,7.86a1.41,1.41,0,0,0,.49-.09l.38-.14Z" transform="translate(0 -0.19)" style="fill:#231f20"/><path d="M12.85,3h1.53L11.75,9.21H10.4L9.35,6.54l-1,2.67H7L4.34,3H5.86L7.73,7.69l.73-2L7.37,3H8.7l.65,1.9L10,3h1.33L10.25,5.66l.74,2Z" transform="translate(0 -0.19)" style="fill:#231f20"/><path d="M15.12,9.21V2.92h1.61V9.21Z" transform="translate(0 -0.19)" style="fill:#231f20"/><path d="M18.18,9.21V2.92h1.61V9.21Z" transform="translate(0 -0.19)" style="fill:#231f20"/><path d="M27.08,9.21h-1.6V5.73a1.75,1.75,0,0,0-.27-1.08.87.87,0,0,0-.73-.35,1.43,1.43,0,0,0-.65.17,2,2,0,0,0-.6.45,1.81,1.81,0,0,0-.38.66V9.21H21.24V3h1.45V4.15a2.52,2.52,0,0,1,.61-.69A3,3,0,0,1,24.16,3a3.52,3.52,0,0,1,1-.15,2,2,0,0,1,1,.21,1.34,1.34,0,0,1,.58.55,2.85,2.85,0,0,1,.28.79,5.26,5.26,0,0,1,.07.89Z" transform="translate(0 -0.19)" style="fill:#231f20"/><path d="M31.4,9.33A3.47,3.47,0,0,1,30,9.08,3.22,3.22,0,0,1,29,8.38a3.09,3.09,0,0,1-.66-1,3.16,3.16,0,0,1-.24-1.22,3.45,3.45,0,0,1,.4-1.63,3.13,3.13,0,0,1,1.16-1.18,3.47,3.47,0,0,1,1.77-.44,3.4,3.4,0,0,1,1.76.44A3,3,0,0,1,34.3,4.51a3.29,3.29,0,0,1,.39,1.57c0,.1,0,.2,0,.3s0,.18,0,.24H29.8a1.71,1.71,0,0,0,.28.82,1.4,1.4,0,0,0,.6.53,1.61,1.61,0,0,0,.78.19,1.82,1.82,0,0,0,.91-.24A1.2,1.2,0,0,0,33,7.3l1.38.39a2.64,2.64,0,0,1-.65.85,3.2,3.2,0,0,1-1,.58A3.74,3.74,0,0,1,31.4,9.33ZM29.76,5.6h3.29a1.85,1.85,0,0,0-.27-.82,1.48,1.48,0,0,0-.58-.53,1.68,1.68,0,0,0-.81-.2,1.56,1.56,0,0,0-.78.2,1.48,1.48,0,0,0-.58.53A1.85,1.85,0,0,0,29.76,5.6Z" transform="translate(0 -0.19)" style="fill:#231f20"/><path d="M19.79,1.38A1.17,1.17,0,0,0,18.64.19a1.29,1.29,0,0,0-1,.55l.25.29s.3-.5.74-.5a.81.81,0,0,1,.81.84.86.86,0,0,1-.73.89c-1,0-1.12-2.07-2.44-2.07a1.19,1.19,0,0,0-1.15,1.22,1.18,1.18,0,0,0,1.15,1.21,1.37,1.37,0,0,0,1-.64l-.22-.27s-.38.55-.82.55a.81.81,0,0,1-.8-.86.82.82,0,0,1,.8-.87c1,0,1.18,2.09,2.43,2.09A1.22,1.22,0,0,0,19.79,1.38Z" transform="translate(0 -0.19)" style="fill:#231f20"/></svg>