<svg xmlns="http://www.w3.org/2000/svg" xmlns:xlink="http://www.w3.org/1999/xlink" viewBox="0 0 84.72 22.95"><defs><linearGradient id="a" x1="41.25" y1="-71.86" x2="51.68" y2="-71.86" gradientTransform="matrix(1, 0, 0, -1, 0, -69.27)" gradientUnits="userSpaceOnUse"><stop offset="0" stop-color="#fcd73a"/><stop offset="0.52" stop-color="#faa51d"/><stop offset="1" stop-color="#c33f28"/></linearGradient></defs><path d="M14.42,8.29H8.76V23H6.05V8.29H.36V5.91H14.42Z" transform="translate(-0.36)" style="fill:#231f20"/><path d="M22.75,6h2.52l2.11,5.78L29.52,6H32l-2.93,7.58,2.55,6.26L37,5.91h2.95l-7,17H30.6l-3.19-7.63L24.19,23H21.84l-7-17h2.93l5.33,13.92,2.54-6.26Z" transform="translate(-0.36)" style="fill:#231f20"/><path d="M41.93,23v-17h2.69V23Z" transform="translate(-0.36)" style="fill:#231f20"/><path d="M48.46,23v-17h2.68V23Z" transform="translate(-0.36)" style="fill:#231f20"/><path d="M57.67,10.91V23H55v-17h2.21l9.65,12.32V5.94h2.71V23H67.2Z" transform="translate(-0.36)" style="fill:#231f20"/><path d="M85.08,20.58V23H73.39v-17H84.86V8.29H76.08v4.85h7.61v2.23H76.08v5.21Z" transform="translate(-0.36)" style="fill:#231f20"/><path d="M45.71,3.24l.36.63s-.4.46-.59.63a2.35,2.35,0,0,1-1.66.68,2.55,2.55,0,0,1-2.48-1.92A2.56,2.56,0,0,1,43.14.11,2,2,0,0,1,43.49,0a2.33,2.33,0,0,1,2,.65,6.1,6.1,0,0,1,1.39,2,4,4,0,0,0,1.39,1.6A1.82,1.82,0,0,0,50.37,4a1.91,1.91,0,0,0,.16-2.7A1.82,1.82,0,0,0,50.11,1,1.68,1.68,0,0,0,48,1.1c-.19.18-.61.63-.61.63l-.15.17-.12-.18-.27-.39L47.16,1A2.63,2.63,0,0,1,49,0a2.54,2.54,0,0,1,2.12,1,2.46,2.46,0,0,1,.57,1.63,2.62,2.62,0,0,1-2.23,2.51,2.59,2.59,0,0,1-2.38-1,8.88,8.88,0,0,1-1.16-1.89A3.35,3.35,0,0,0,44.54.83,1.76,1.76,0,0,0,43,.89a1.92,1.92,0,0,0-.57,3A1.83,1.83,0,0,0,45.06,4,5.22,5.22,0,0,0,45.71,3.24Z" transform="translate(-0.36)" style="fill:url(#a)"/></svg>