<svg width="27" height="28" viewBox="0 0 27 28" fill="none" xmlns="http://www.w3.org/2000/svg">
<path d="M13.5 6C13.8536 6 14.1928 6.14048 14.4428 6.39052C14.6929 6.64057 14.8333 6.97971 14.8333 7.33333V12.6667H20.1667C20.5203 12.6667 20.8594 12.8071 21.1095 13.0572C21.3595 13.3072 21.5 13.6464 21.5 14C21.5 14.3536 21.3595 14.6928 21.1095 14.9428C20.8594 15.1929 20.5203 15.3333 20.1667 15.3333H14.8333V20.6667C14.8333 21.0203 14.6929 21.3594 14.4428 21.6095C14.1928 21.8595 13.8536 22 13.5 22C13.1464 22 12.8072 21.8595 12.5572 21.6095C12.3071 21.3594 12.1667 21.0203 12.1667 20.6667V15.3333H6.83333C6.47971 15.3333 6.14057 15.1929 5.89052 14.9428C5.64048 14.6928 5.5 14.3536 5.5 14C5.5 13.6464 5.64048 13.3072 5.89052 13.0572C6.14057 12.8071 6.47971 12.6667 6.83333 12.6667H12.1667V7.33333C12.1667 6.97971 12.3071 6.64057 12.5572 6.39052C12.8072 6.14048 13.1464 6 13.5 6Z" fill="#9E9E9E"/>
<path fill-rule="evenodd" clip-rule="evenodd" d="M4.16663 27.3334C3.10576 27.3334 2.08834 26.912 1.3382 26.1618C0.588053 25.4117 0.166626 24.3943 0.166626 23.3334V4.66675C0.166626 3.60588 0.588053 2.58847 1.3382 1.83832C2.08834 1.08818 3.10576 0.666748 4.16663 0.666748H22.8333C23.8942 0.666748 24.9116 1.08818 25.6617 1.83832C26.4119 2.58847 26.8333 3.60588 26.8333 4.66675V23.3334C26.8333 24.3943 26.4119 25.4117 25.6617 26.1618C24.9116 26.912 23.8942 27.3334 22.8333 27.3334H4.16663ZM2.83329 23.3334C2.83329 23.687 2.97377 24.0262 3.22382 24.2762C3.47387 24.5263 3.813 24.6667 4.16663 24.6667H22.8333C23.1869 24.6667 23.5261 24.5263 23.7761 24.2762C24.0262 24.0262 24.1666 23.687 24.1666 23.3334V4.66675C24.1666 4.31313 24.0262 3.97399 23.7761 3.72394C23.5261 3.47389 23.1869 3.33341 22.8333 3.33341H4.16663C3.813 3.33341 3.47387 3.47389 3.22382 3.72394C2.97377 3.97399 2.83329 4.31313 2.83329 4.66675V23.3334Z" fill="#9E9E9E"/>
</svg>
