<?xml version="1.0" encoding="iso-8859-1"?>
<!-- Generator: Adobe Illustrator 19.0.0, SVG Export Plug-In . SVG Version: 6.00 Build 0)  -->
<svg version="1.1" id="Layer_1" xmlns="http://www.w3.org/2000/svg" xmlns:xlink="http://www.w3.org/1999/xlink" x="0px" y="0px"
	 viewBox="0 0 512.001 512.001" style="enable-background:new 0 0 512.001 512.001;" xml:space="preserve">
<g>
	<g>
		<path d="M485.855,260.752h-17.325v-19.335c0-9.318-7.554-16.872-16.872-16.872s-16.872,7.554-16.872,16.872v4.958l-16.529,0.003
			c-2.706-36.76-16.676-70.435-38.456-97.591l14.412-14.417l-0.294-0.294h4.937c9.318,0,16.872-7.554,16.872-16.872
			c0-9.318-7.554-16.872-16.872-16.872h-17.323V80.995c0-9.318-7.554-16.872-16.872-16.872c-9.318,0-16.872,7.554-16.872,16.872
			v36.208c0,0.19,0.022,0.375,0.029,0.564c-25.418-19.12-56.121-31.565-89.488-34.731l-0.003-13.082h1.231
			c9.318,0,16.872-7.554,16.872-16.872c0-9.318-7.554-16.872-16.872-16.872H242.23V16.872C242.23,7.554,234.677,0,225.359,0
			c-9.318,0-16.872,7.554-16.872,16.872V53.08c0,9.055,7.14,16.424,16.094,16.832l0.003,13.121
			c-32.889,3.119-63.188,15.256-88.391,33.912c-2.282-6.617-8.547-11.377-15.938-11.377H102.93V86.233
			c0-9.318-7.554-16.872-16.872-16.872c-9.318,0-16.872,7.554-16.872,16.872v36.208c0,9.318,7.554,16.872,16.872,16.872h7.541
			l9.49,9.487c-21.789,27.174-35.758,60.871-38.451,97.655l-21.62,0.004v-1.232c0-9.318-7.554-16.872-16.872-16.872
			c-9.318,0-16.872,7.554-16.872,16.872v36.208c0,9.318,7.554,16.872,16.872,16.872h34.196c2.773,0,5.382-0.682,7.691-1.867
			c6.233,29.312,19.731,55.966,38.515,77.986l-3.913,3.914c-0.655-0.078-1.319-0.129-1.995-0.129
			c-9.318,0-16.872,7.554-16.872,16.872v36.208c0,9.318,7.554,16.872,16.872,16.872h34.196c9.318,0,16.872-7.554,16.872-16.872
			c0-9.318-7.554-16.872-16.872-16.872h-17.325v-3.231l13.263-13.269c12.239,9.807,25.8,18.027,40.371,24.346l-22.254,67.586
			c-3.587,10.896,4.537,22.149,16.026,22.149H317.98c11.47,0,19.619-11.236,16.026-22.149l-22.254-67.586
			c14.614-6.338,28.211-14.586,40.478-24.432l15.67,15.664v7.736c0,9.318,7.554,16.872,16.872,16.872h34.196
			c9.318,0,16.872-7.554,16.872-16.872c0-9.318-7.554-16.872-16.872-16.872h-17.325v-19.336c0-9.318-7.554-16.872-16.872-16.872
			c-1.242,0-2.45,0.143-3.615,0.398c19.545-24.989,32.534-55.334,36.381-88.429l17.45-0.003c1.209,8.132,8.2,14.378,16.668,14.378
			h34.196c9.322,0,16.876-7.553,16.876-16.871C502.728,268.306,495.174,260.752,485.855,260.752z M332.365,148.513l-48.385,48.407
			c-7.656-5.218-16.319-9.052-25.626-11.183l-0.017-68.767C286.227,120.251,311.696,131.555,332.365,148.513z M241.452,217.554
			c23.14,0,41.967,18.827,41.967,41.967c0,22.095-17.184,40.295-38.968,41.848c-24.43,1.712-44.964-17.672-44.964-41.848
			C199.485,236.38,218.311,217.554,241.452,217.554z M269.029,400.402c-8.928,1.744-18.146,2.668-27.577,2.668
			s-18.65-0.924-27.577-2.668l21.537-65.409c3.744,0.295,7.884,0.331,12.08,0L269.029,400.402z M224.591,116.965l0.017,68.757
			c-9.319,2.126-17.996,5.96-25.662,11.18l-48.41-48.389C171.211,131.55,196.691,120.244,224.591,116.965z M127.122,172.82
			l48.828,48.807c-4.383,7.545-7.494,15.909-9.053,24.805l-68.394,0.014C100.997,218.946,111.278,193.662,127.122,172.82z
			 M130.483,350.482c-16.209-19.737-27.259-43.861-31.088-70.291l69.234-0.014c2.243,7.895,5.722,15.275,10.24,21.898
			L130.483,350.482z M154.799,373.887l48.136-48.157l-21.179,64.324C172.155,385.647,163.124,380.21,154.799,373.887z
			 M188.239,478.256l15.014-45.598c12.308,2.714,25.086,4.157,38.198,4.157c13.111,0,25.89-1.443,38.197-4.157l15.015,45.598
			H188.239z M301.147,390.055l-21.244-64.518l48.297,48.276C319.849,380.167,310.785,385.629,301.147,390.055z M352.497,350.386
			l-48.409-48.388c4.499-6.612,7.961-13.977,10.195-21.855l69.233-0.016C379.702,306.541,368.676,330.65,352.497,350.386z
			 M316,246.399c-1.557-8.875-4.662-17.219-9.032-24.748l48.812-48.833c15.831,20.827,26.11,46.089,28.614,73.566L316,246.399z"/>
	</g>
</g>
<g>
</g>
<g>
</g>
<g>
</g>
<g>
</g>
<g>
</g>
<g>
</g>
<g>
</g>
<g>
</g>
<g>
</g>
<g>
</g>
<g>
</g>
<g>
</g>
<g>
</g>
<g>
</g>
<g>
</g>
</svg>
