<svg width="28" height="28" viewBox="0 0 28 28" fill="none" xmlns="http://www.w3.org/2000/svg">
<path d="M18 3.33341V12.6667H4.89329L4.10663 13.4534L3.33329 14.2267V3.33341H18ZM19.3333 0.666748H1.99996C1.26663 0.666748 0.666626 1.26675 0.666626 2.00008V20.6667L5.99996 15.3334H19.3333C20.0666 15.3334 20.6666 14.7334 20.6666 14.0001V2.00008C20.6666 1.26675 20.0666 0.666748 19.3333 0.666748ZM26 6.00008H23.3333V18.0001H5.99996V20.6667C5.99996 21.4001 6.59996 22.0001 7.33329 22.0001H22L27.3333 27.3334V7.33342C27.3333 6.60008 26.7333 6.00008 26 6.00008Z" fill="#786666"/>
</svg>
