<svg width="28" height="28" viewBox="0 0 28 28" fill="none" xmlns="http://www.w3.org/2000/svg">
<path d="M12.6666 22.0001H15.3333V19.3334H12.6666V22.0001ZM14 0.666748C6.63996 0.666748 0.666626 6.64008 0.666626 14.0001C0.666626 21.3601 6.63996 27.3334 14 27.3334C21.36 27.3334 27.3333 21.3601 27.3333 14.0001C27.3333 6.64008 21.36 0.666748 14 0.666748ZM14 24.6667C8.11996 24.6667 3.33329 19.8801 3.33329 14.0001C3.33329 8.12008 8.11996 3.33341 14 3.33341C19.88 3.33341 24.6666 8.12008 24.6666 14.0001C24.6666 19.8801 19.88 24.6667 14 24.6667ZM14 6.00008C11.0533 6.00008 8.66663 8.38675 8.66663 11.3334H11.3333C11.3333 9.86675 12.5333 8.66675 14 8.66675C15.4666 8.66675 16.6666 9.86675 16.6666 11.3334C16.6666 14.0001 12.6666 13.6667 12.6666 18.0001H15.3333C15.3333 15.0001 19.3333 14.6667 19.3333 11.3334C19.3333 8.38675 16.9466 6.00008 14 6.00008Z" fill="#786666"/>
</svg>
