<svg width="33" height="32" viewBox="0 0 33 32" fill="none" xmlns="http://www.w3.org/2000/svg">
<path d="M31.6152 5.94888L22.0152 1.14888C21.7929 1.03765 21.5478 0.979736 21.2992 0.979736C21.0506 0.979736 20.8055 1.03765 20.5832 1.14888L11.5752 5.65288L2.6056 2.66248C2.36507 2.58237 2.10894 2.56056 1.85833 2.59885C1.60771 2.63715 1.36978 2.73445 1.16415 2.88273C0.958518 3.03102 0.791067 3.22605 0.675595 3.45175C0.560124 3.67745 0.499939 3.92736 0.5 4.18088V24.9825C0.5 25.5889 0.8424 26.1425 1.3848 26.4129L10.9848 31.2129C11.2071 31.3231 11.4519 31.3805 11.7 31.3805C11.9481 31.3805 12.1929 31.3231 12.4152 31.2129L21.4232 26.7105L30.3928 29.7009C30.6333 29.7814 30.8896 29.8035 31.1403 29.7653C31.3911 29.7272 31.6292 29.6299 31.8349 29.4816C32.0406 29.3332 32.2081 29.138 32.3235 28.9121C32.4389 28.6862 32.4988 28.4361 32.4984 28.1825V7.37928C32.4991 7.08224 32.4168 6.7909 32.2608 6.53815C32.1047 6.2854 31.8811 6.0813 31.6152 5.94888ZM13.3 8.36968L19.7 5.16968V23.9905L13.3 27.1905V8.36968ZM3.7 6.40008L10.1 8.53288V27.1905L3.7 23.9905V6.40008ZM29.3 25.9633L22.9 23.8289V5.16968L29.3 8.36968V25.9633Z" fill="#9E9E9E"/>
</svg>
