<svg width="25" height="30" viewBox="0 0 25 30" fill="none" xmlns="http://www.w3.org/2000/svg">
<path d="M7.86667 6.99992C7.86667 4.71992 9.72 2.86659 12 2.86659C14.28 2.86659 16.1333 4.71992 16.1333 6.99992V9.66658H9.92L12.5867 12.3333H20V19.7466L22.6667 22.4132V12.3333C22.6667 10.8666 21.4667 9.66658 20 9.66658H18.6667V6.99992C18.6667 3.31992 15.68 0.333252 12 0.333252C8.90667 0.333252 6.32 2.45325 5.57333 5.31992L7.86667 7.61325V6.99992ZM1.88 5.41325L0 7.29325L2.72 10.0133C1.89333 10.4666 1.33333 11.3333 1.33333 12.3333V25.6666C1.33333 27.1333 2.53333 28.3333 4 28.3333H21.04L22.3733 29.6666L24.2533 27.7866L1.88 5.41325ZM4 25.6666V12.3333H5.04L18.3733 25.6666H4Z" fill="#786666"/>
</svg>
