<svg width="25" height="24" viewBox="0 0 25 24" fill="none" xmlns="http://www.w3.org/2000/svg">
<path fill-rule="evenodd" clip-rule="evenodd" d="M22.5 24C22.5 24 24.5 24 24.5 22C24.5 20 22.5 14 12.5 14C2.5 14 0.5 20 0.5 22C0.5 24 2.5 24 2.5 24H22.5ZM2.51 22.112V22.108V22.112ZM2.544 22H22.456C22.4654 21.9989 22.4747 21.9976 22.484 21.996L22.5 21.992C22.498 21.5 22.192 20.02 20.836 18.664C19.532 17.36 17.078 16 12.5 16C7.92 16 5.468 17.36 4.164 18.664C2.808 20.02 2.504 21.5 2.5 21.992C2.51464 21.9948 2.52931 21.9975 2.544 22ZM22.492 22.112V22.108V22.112ZM12.5 10C13.5609 10 14.5783 9.57857 15.3284 8.82843C16.0786 8.07828 16.5 7.06087 16.5 6C16.5 4.93913 16.0786 3.92172 15.3284 3.17157C14.5783 2.42143 13.5609 2 12.5 2C11.4391 2 10.4217 2.42143 9.67157 3.17157C8.92143 3.92172 8.5 4.93913 8.5 6C8.5 7.06087 8.92143 8.07828 9.67157 8.82843C10.4217 9.57857 11.4391 10 12.5 10ZM18.5 6C18.5 7.5913 17.8679 9.11742 16.7426 10.2426C15.6174 11.3679 14.0913 12 12.5 12C10.9087 12 9.38258 11.3679 8.25736 10.2426C7.13214 9.11742 6.5 7.5913 6.5 6C6.5 4.4087 7.13214 2.88258 8.25736 1.75736C9.38258 0.632141 10.9087 0 12.5 0C14.0913 0 15.6174 0.632141 16.7426 1.75736C17.8679 2.88258 18.5 4.4087 18.5 6Z" fill="#9E9E9E"/>
</svg>
