<svg width="26" height="26" viewBox="0 0 26 26" fill="none" xmlns="http://www.w3.org/2000/svg">
<path d="M10.8333 22.0001C13.1999 21.9996 15.4984 21.2073 17.3626 19.7494L23.224 25.6107L25.1093 23.7254L19.248 17.8641C20.7066 15.9996 21.4994 13.7007 21.5 11.3334C21.5 5.45208 16.7146 0.666748 10.8333 0.666748C4.95196 0.666748 0.166626 5.45208 0.166626 11.3334C0.166626 17.2147 4.95196 22.0001 10.8333 22.0001ZM10.8333 3.33341C15.2453 3.33341 18.8333 6.92141 18.8333 11.3334C18.8333 15.7454 15.2453 19.3334 10.8333 19.3334C6.42129 19.3334 2.83329 15.7454 2.83329 11.3334C2.83329 6.92141 6.42129 3.33341 10.8333 3.33341Z" fill="#9E9E9E"/>
</svg>
