<svg width="30" height="31" viewBox="0 0 30 31" fill="none" xmlns="http://www.w3.org/2000/svg">
<path d="M12 1.2373V5.2373L10 6.2373L7 3.2373L3 7.2373L6 10.2373L5 12.2373H1V18.2373H5L6 20.2373L3 23.2373L7 27.2373L10 24.2373L12 25.2373V29.2373H18V25.2373L20 24.2373L23 27.2373L27 23.2373L24 20.2373L25 18.2373H29V12.2373H25L24 10.2373L27 7.2373L23 3.2373L20 6.2373L18 5.2373V1.2373H12Z" stroke="#786666" stroke-width="2" stroke-linecap="round" stroke-linejoin="round"/>
<path d="M15 19.2373C17.2091 19.2373 19 17.4464 19 15.2373C19 13.0282 17.2091 11.2373 15 11.2373C12.7909 11.2373 11 13.0282 11 15.2373C11 17.4464 12.7909 19.2373 15 19.2373Z" stroke="#786666" stroke-width="2" stroke-linecap="round" stroke-linejoin="round"/>
</svg>
