<svg xmlns="http://www.w3.org/2000/svg" xmlns:xlink="http://www.w3.org/1999/xlink" viewBox="0 0 114.69 59.65"><defs><linearGradient id="a" y1="29.82" x2="114.69" y2="29.82" gradientUnits="userSpaceOnUse"><stop offset="0" stop-color="#fcd739"/><stop offset="0.5" stop-color="#faa41a"/><stop offset="1" stop-color="#c33c27"/></linearGradient></defs><path d="M114.69,29.19C114.69,12.72,102.05,0,86.41,0S62,13.56,62,13.56l6,7.08S75.4,8.36,86.35,8.36,106,16.9,106,29,96.71,50.81,88.18,50.81C62.71,50.81,60.71,0,28.29,0,12.71,0,0,13.35,0,29.82S12.47,59.65,28.29,59.65,53.91,43.89,53.91,43.89l-5.38-6.48s-9.41,13.4-20.29,13.4c-11.22,0-19.7-9.17-19.7-21.22S17,8.36,28.24,8.36C53.76,8.36,57.31,59.78,88,59.65,101.61,59.65,114.69,45.66,114.69,29.19Z" style="fill:url(#a)"/></svg>